<svg xmlns="http://www.w3.org/2000/svg" xmlns:xlink="http://www.w3.org/1999/xlink" width="1054.428" height="633" viewBox="0 0 1054.428 633">
  <defs>
    <clipPath id="clip-path">
      <path id="Path_23" data-name="Path 23" d="M0,0H1054.428V633H0Z" transform="translate(991 318)" fill="#0a54ff"/>
    </clipPath>
  </defs>
  <g id="moving-phone" transform="translate(-919.286 -223.5)">
    <g id="Mask_Group_1" data-name="Mask Group 1" transform="translate(-71.714 -94.5)" clip-path="url(#clip-path)">
      <g id="undraw_design_process_re_0dhf" transform="translate(1089.516 318)">
        <path id="Path_1" data-name="Path 1" d="M628.331,462.553l-8.5,2.718-14.525-31.479,12.54-4.012Z" transform="translate(206.72 146.774)" fill="#ffb6b6"/>
        <path id="Path_2" data-name="Path 2" d="M780.277,578.636l-27.4,8.763-.111-.347a11.2,11.2,0,0,1,7.252-14.074h0l3.79-5.4,10.551.81,2.392-.765Z" transform="translate(59.575 38.234)" fill="#2f2e41"/>
        <path id="Path_3" data-name="Path 3" d="M565.771,469.286H556.85l-4.243-34.408h13.165Z" transform="translate(188.721 148.515)" fill="#ffb6b6"/>
        <path id="Path_4" data-name="Path 4" d="M718.527,586.92H689.764v-.364a11.2,11.2,0,0,1,11.2-11.2h0l5.254-3.986,9.8,3.987h2.511Z" transform="translate(38.24 39.529)" fill="#2f2e41"/>
        <path id="Path_6" data-name="Path 6" d="M783.634,480.163s2.081-27.1-5.294-32.128-68.173-7.565-68.173-7.565l-3.775,4.965s-.342,2.319-6.068,21.207l-2.333,105.435c-.231,10.279-2.024,23.194,2.27,25.834l2.087,10.434h11.477l6.341-17.542a23.067,23.067,0,0,0,3.3-14.777l3.462-15.486a1.874,1.874,0,0,1-.493-.883,9.044,9.044,0,0,1,1.447-6.61,11.674,11.674,0,0,1,1.009-1.286l12.685-56.74,17.11,66.373,10.56,23.576c-1.038,2.471-.349,4.71,1.544,6.788-.7,1.933,2.336,3.29,3.641,5.789l4.079,7.669,11.477-6.26,1.043-6.26c.695-1.856-1.174-3.087-2.551-6.943,2.569-2.729,2.43-5.386-.047-7.982L784.1,559.062l-.05-8.577-.054-9.167Z" transform="translate(40.856 -5.175)" fill="#0a54ff"/>
        <circle id="Ellipse_5" data-name="Ellipse 5" cx="19.938" cy="19.938" r="19.938" transform="translate(756.565 274.025)" fill="#ffb6b6"/>
        <path id="Path_7" data-name="Path 7" d="M751.809,346.415l-.329-.658c-.509-1.018-4.725-9.484-5.254-11.661l-5.306.624-13.816,0,1.92-2.88-5.076.662a11.65,11.65,0,0,0-5.172,1.949,7.924,7.924,0,0,0-2.346,2.419c-1.813,3.1-4.583,8.183-4.611,8.234l-.265.486-2.3-3.872c-.03-.15-2.883-15.03,6.664-20.076a15.365,15.365,0,0,1,14.605-8.336,6.287,6.287,0,0,1,4.274-2.125c2.265-.118,4.615,1.071,6.976,3.551,3.136,3.293,7.431,7.8,10.029,12.809l.717,1.022a8.059,8.059,0,0,1,1.434,5,16.7,16.7,0,0,1-.569,8.52Z" transform="translate(44.751 -49.331)" fill="#0a54ff"/>
        <path id="Path_8" data-name="Path 8" d="M781.59,367.028l-21.671-6.068-11.032-8.184-21.671,3.457-.094.122c-3.794,4.929-9.644,9.8-15.861,9.992a21.768,21.768,0,0,0-4.739.68l-2.081,38.041v34.012a2,2,0,0,1,1.31,1.453A27.622,27.622,0,0,1,705.58,451a17.5,17.5,0,0,1-1.14,3.495,9.228,9.228,0,0,1,0,8.03c-1.852,1.766-1.613,3.69,0,5.718v7.141C739.615,504.732,776.3,479.6,776.3,479.6l-1.177-55.863Z" transform="translate(42.808 -35.124)" fill="#3f3d56"/>
        <g id="hand">
          <path id="Path_5" data-name="Path 5" d="M678.276,312.168a7.317,7.317,0,0,0,2.205,11L676.2,348.818l12.351-5.481,2.17-23.516a7.357,7.357,0,0,0-12.447-7.653Z" transform="translate(33.609 -49.946)" fill="#ffb6b6"/>
          <path id="Path_9" data-name="Path 9" d="M723.149,382.523l-4.86-5.225L691.5,374.264l2.514-41.141-14.6-10.418L672.8,358.4c-2.274,1.968-2.7,3.905-1.076,5.811-1.821,3.642-2.289,6.6-1.67,9.016l-1.369,7.391,49.563,34.716Z" transform="translate(31.041 -45.394)" fill="#3f3d56"/>
        </g>
        <path id="Path_10" data-name="Path 10" d="M758.964,476.9a7.317,7.317,0,0,1,3.363-10.7L760.8,440.241,772.5,447l-.344,23.614a7.357,7.357,0,0,1-13.19,6.285Z" transform="translate(61.479 -5.254)" fill="#ffb6b6"/>
        <path id="Path_11" data-name="Path 11" d="M756.678,369.892l8.142-6.492s8.325,4.592,10.858,12.825,6.967,55.1,6.967,55.1l.683,17.45c.876,2.768.646,5.237-1.441,7.2,3.137,3.245,2.669,5.948-1.615,8.076l-4.444,27.436-13.949-2.9,1.766-54.1-11.4-34.834Z" transform="translate(59.578 -31.496)" fill="#3f3d56"/>
        <path id="Path_12" data-name="Path 12" d="M406.172,239.463h-2.855V161.255a45.265,45.265,0,0,0-45.265-45.265h-165.7a45.265,45.265,0,0,0-45.266,45.265V590.317a45.265,45.265,0,0,0,45.266,45.266h165.7a45.265,45.265,0,0,0,45.266-45.265V295.134h2.855Z" transform="translate(-147.089 -115.989)" fill="#3f3d56"/>
        <path id="Path_13" data-name="Path 13" d="M356.7,124.768H335.07A16.06,16.06,0,0,1,320.2,146.894H225.275a16.06,16.06,0,0,1-14.869-22.126H190.2a33.8,33.8,0,0,0-33.8,33.8V587a33.8,33.8,0,0,0,33.8,33.8H356.7A33.8,33.8,0,0,0,390.5,587h0V158.571a33.8,33.8,0,0,0-33.8-33.8Z" transform="translate(-143.91 -112.991)" fill="#fff"/>
        <path id="Path_14" data-name="Path 14" d="M346.088,265.169a81.3,81.3,0,0,1-5.124,28.507,79.065,79.065,0,0,1-5.663,12.073,81.672,81.672,0,0,1-141.72,0q-1.086-1.882-2.059-3.821a81.653,81.653,0,1,1,154.566-36.759Z" transform="translate(-134.901 -92.929)" fill="#f1f1f1"/>
        <g id="ball">
          <circle id="Ellipse_6" data-name="Ellipse 6" cx="15.609" cy="15.609" r="15.609" transform="translate(118.177 154.805)" fill="#ff6582"/>
        </g>
        <path id="Path_15" data-name="Path 15" d="M189.3,286.233c6.877-7.432,16.071-19.232,24.694-10.706,4.328,4.022,11.1,13.988,17.583,7.472L282.2,232.373a10.051,10.051,0,0,1,14.374.257l42.165,45.35a79.083,79.083,0,0,1-5.663,12.073H191.356Z" transform="translate(-132.675 -77.233)" fill="#0a54ff"/>
        <path id="Path_680" data-name="Path 680" d="M272.747,367.973a2.109,2.109,0,1,0,0,4.219h22.134a2.109,2.109,0,0,0,0-4.219Z" transform="translate(-104.896 -29.934)" fill="#0a54ff"/>
        <g id="line_1" data-name="line 1">
          <path id="Path_680-2" data-name="Path 680" d="M198.412,344.879a2.109,2.109,0,0,0,0,4.219H321.235a2.109,2.109,0,1,0,0-4.219Z" transform="translate(-130.282 -37.821)" fill="#e5e5e5"/>
        </g>
        <g id="line_2" data-name="line 2">
          <path id="Path_680-3" data-name="Path 680" d="M198.412,356.427a2.109,2.109,0,1,0,0,4.219H321.235a2.109,2.109,0,1,0,0-4.219Z" transform="translate(-130.282 -33.877)" fill="#e5e5e5"/>
        </g>
        <path id="Path_680-4" data-name="Path 680" d="M272.747,442.067a2.109,2.109,0,1,0,0,4.219h22.134a2.109,2.109,0,0,0,0-4.219Z" transform="translate(-104.896 -4.63)" fill="#0a54ff"/>
        <g id="line_3" data-name="line 3">
          <path id="Path_680-5" data-name="Path 680" d="M198.412,418.973a2.109,2.109,0,0,0,0,4.219H321.235a2.109,2.109,0,0,0,0-4.219Z" transform="translate(-130.282 -12.517)" fill="#e5e5e5"/>
        </g>
        <g id="line_4" data-name="line 4">
          <path id="line_4-2" data-name="line 4" d="M198.412,430.52a2.109,2.109,0,1,0,0,4.219H321.235a2.109,2.109,0,1,0,0-4.219Z" transform="translate(-130.282 -8.574)" fill="#e5e5e5"/>
        </g>
        <g id="phone">
          <path id="Path_16" data-name="Path 16" d="M750.87,308.817l-16.853-7.62a13.734,13.734,0,0,1-19.382,12l-73.966-33.445a13.734,13.734,0,0,1-3.791-22.479l-15.741-7.118a28.907,28.907,0,0,0-38.25,14.43L431.94,598.419a28.907,28.907,0,0,0,14.43,38.25h0L576.1,695.33a28.907,28.907,0,0,0,38.25-14.43h0L765.3,347.067A28.907,28.907,0,0,0,750.87,308.817Z" transform="translate(-50.689 -71.049)" fill="#e4e4e4"/>
          <path id="Path_17" data-name="Path 17" d="M567.715,446.186a71.084,71.084,0,0,1-41.352-57.811c-.122-1.231-.21-2.5-.262-3.76a70.073,70.073,0,0,1,6.243-32.19A70.863,70.863,0,1,1,647.235,431.53a68.863,68.863,0,0,1-8.8,7.524A71.089,71.089,0,0,1,567.715,446.186Zm57.532-127.236a68.855,68.855,0,0,0-91,34.335,68.008,68.008,0,0,0-6.059,31.242c.051,1.225.136,2.451.254,3.646a68.8,68.8,0,0,0,108.778,49.189,66.778,66.778,0,0,0,8.534-7.3,68.807,68.807,0,0,0-20.5-111.113Z" transform="translate(-17.677 -49.464)" fill="#fff"/>
          <rect id="Rectangle_4" data-name="Rectangle 4" width="2.087" height="138.609" transform="translate(555.073 266.671) rotate(-20.96)" fill="#fff"/>
          <rect id="Rectangle_5" data-name="Rectangle 5" width="138.61" height="2.087" transform="translate(512.99 355.87) rotate(-20.956)" fill="#fff"/>
          <path id="Path_18" data-name="Path 18" d="M609.854,509.511,487.41,454.145a3.763,3.763,0,0,1-1.876-4.973L497.052,423.7a3.763,3.763,0,0,1,4.973-1.876l122.445,55.366a3.763,3.763,0,0,1,1.876,4.973l-11.518,25.474a3.763,3.763,0,0,1-4.974,1.876ZM501.165,423.723a1.674,1.674,0,0,0-2.212.835l-11.518,25.474a1.674,1.674,0,0,0,.834,2.212l122.444,55.366a1.674,1.674,0,0,0,2.212-.835L624.444,481.3a1.674,1.674,0,0,0-.834-2.212Z" transform="translate(-31.621 -11.658)" fill="#fff"/>
          <path id="Path_19" data-name="Path 19" d="M587.744,558.409,465.3,503.043a3.763,3.763,0,0,1-1.876-4.974L474.941,472.6a3.763,3.763,0,0,1,4.973-1.876L602.36,526.086a3.763,3.763,0,0,1,1.876,4.973l-11.518,25.474a3.763,3.763,0,0,1-4.973,1.877ZM479.055,472.622a1.674,1.674,0,0,0-2.212.835L465.324,498.93a1.674,1.674,0,0,0,.834,2.212L588.6,556.508a1.674,1.674,0,0,0,2.212-.835L602.334,530.2a1.674,1.674,0,0,0-.834-2.212Z" transform="translate(-39.172 5.041)" fill="#fff"/>
        </g>
        <path id="Path_20" data-name="Path 20" d="M569.127,432.69a81.386,81.386,0,0,0-15.876-34.362,107.6,107.6,0,0,0-29.019-25.559,128.681,128.681,0,0,0-37.151-15.232c-16.287-3.913-33.107-5.188-49.823-5.027-16.836.162-33.618,1.739-50.351,3.5q-3.19.335-6.379.677c-1.982.212-2,3.344,0,3.13,16.485-1.76,33-3.49,49.575-4.022,16.445-.528,33.012.119,49.2,3.257a131.235,131.235,0,0,1,38.537,13.624,108.947,108.947,0,0,1,29.756,23.666,80.464,80.464,0,0,1,17.495,32.584c.39,1.522.727,3.056,1.022,4.6.378,1.976,3.4,1.139,3.018-.832Z" transform="translate(-67.878 -35.22)" fill="#0a54ff"/>
        <path id="Path_21" data-name="Path 21" d="M394.959,339.042l-25,26.593a1.58,1.58,0,0,0,.317,2.458l22.555,10.782c1.808.864,3.4-1.833,1.58-2.7l-22.555-10.782.317,2.458,25-26.593C398.552,339.789,396.342,337.571,394.959,339.042Z" transform="translate(-71.131 -39.979)" fill="#0a54ff"/>
      </g>
    </g>
  </g>
</svg>
